<svg width="108" height="108" viewBox="0 0 108 108" fill="none" xmlns="http://www.w3.org/2000/svg">
<g clip-path="url(#clip0_108_1010)">
<path fill-rule="evenodd" clip-rule="evenodd" d="M286.732 99.0901V227.91C286.732 263.459 258.563 292.321 223.866 292.321H98.134C63.437 292.321 35.2676 263.459 35.2676 227.91V99.0901C35.2676 63.5408 63.437 34.6796 98.134 34.6796H223.866C258.563 34.6796 286.732 63.5408 286.732 99.0901ZM261.543 188.119C259.667 188.119 258.145 188.705 258.145 189.428C258.145 190.151 259.667 190.738 261.543 190.738C261.543 192.773 262.084 194.425 262.751 194.425C263.417 194.425 263.958 192.773 263.958 190.738C265.833 190.738 267.356 190.151 267.356 189.428C267.356 188.705 265.833 188.119 263.958 188.119C263.958 186.084 263.417 184.432 262.751 184.432C262.084 184.432 261.543 186.084 261.543 188.119ZM226.08 63.2389L223.906 69.8241L217.095 71.2432C215.861 71.5002 214.891 72.4574 214.621 73.6838C214.351 74.9102 214.832 76.1757 215.848 76.9109L221.455 80.9686L220.667 87.8487C220.524 89.0955 221.133 90.3044 222.22 90.9322C223.307 91.56 224.667 91.4882 225.689 90.7494L231.329 86.6713L237.653 89.5049C238.799 90.0182 240.146 89.8086 241.087 88.97C242.029 88.1313 242.388 86.8214 242.004 85.6289L239.883 79.0519L244.578 73.9226C245.429 72.9929 245.653 71.6544 245.148 70.5085C244.643 69.3622 243.505 68.6246 242.245 68.6269L235.295 68.6397L231.873 62.6362C231.253 61.5482 230.045 60.931 228.791 61.0612C227.537 61.1914 226.475 62.0452 226.08 63.2389ZM67.7325 121.185C65.9934 121.185 64.5815 121.77 64.5815 122.49C64.5815 123.211 65.9934 123.796 67.7325 123.796C67.7325 125.414 68.3612 126.728 69.1358 126.728C69.9105 126.728 70.5397 125.414 70.5397 123.796C72.2782 123.796 73.6901 123.211 73.6901 122.49C73.6901 121.77 72.2782 121.185 70.5397 121.185C70.5397 119.566 69.9105 118.252 69.1358 118.252C68.3612 118.252 67.7325 119.566 67.7325 121.185ZM99.7699 206.419L94.1366 227.382C93.6954 228.241 93.4481 229.205 93.4481 230.224C93.4481 233.808 96.509 236.718 100.28 236.718C101.747 236.718 103.107 236.278 104.22 235.528L104.235 235.548L122.029 222.725C125.452 223.759 129.078 224.315 132.832 224.315C144.616 224.315 155.144 218.838 162.054 210.269C168.965 218.838 179.492 224.315 191.277 224.315C204.68 224.315 216.458 217.229 223.136 206.567C240.205 203.136 253.099 187.71 253.099 169.223C253.099 156.962 247.426 146.047 238.625 139.085C238.749 137.93 238.812 136.757 238.812 135.57C238.812 117.754 224.55 103.221 206.757 102.633C203.426 92.5107 193.477 85.1564 181.735 85.1564C173.881 85.1564 166.829 88.4473 162.023 93.656C157.213 88.1757 149.976 84.6863 141.888 84.6863C129.662 84.6863 119.381 92.6591 116.488 103.428C99.4855 104.842 86.111 119.016 86.111 136.268C86.111 136.911 86.1292 137.549 86.1663 138.183C76.6912 145.082 70.5055 156.418 70.5055 169.223C70.5055 187.457 83.049 202.713 99.7699 206.419ZM239.679 214.171C234.546 214.171 230.379 218.44 230.379 223.699C230.379 228.958 234.546 233.228 239.679 233.228C244.812 233.228 248.979 228.958 248.979 223.699C248.979 218.44 244.812 214.171 239.679 214.171ZM83.3123 87.5684C78.5203 84.4516 73.1412 87.1193 71.503 90.6782C69.8643 94.2371 71.9665 98.6877 76.759 101.804C80.2183 104.208 86.6366 105.145 91.7221 105.37C94.7055 101.144 97.9699 95.4051 98.2759 91.1337C98.863 85.3497 96.7609 80.8991 93.02 80.0079C89.2791 79.1167 83.8994 81.7838 83.3123 87.5684ZM215.28 234.569C213.256 234.569 211.613 236.253 211.613 238.327C211.613 240.401 213.256 242.084 215.28 242.084C217.304 242.084 218.947 240.401 218.947 238.327C218.947 236.253 217.304 234.569 215.28 234.569ZM193.575 64.6148C191.836 64.6148 190.424 65.2 190.424 65.9206C190.424 66.6413 191.836 67.2271 193.575 67.2271C193.575 68.8447 194.204 70.1587 194.978 70.1587C195.753 70.1587 196.382 68.8447 196.382 67.2271C198.121 67.2271 199.532 66.6413 199.532 65.9206C199.532 65.2 198.121 64.6148 196.382 64.6148C196.382 62.9966 195.753 61.6826 194.978 61.6826C194.204 61.6826 193.575 62.9966 193.575 64.6148ZM117.448 69.7248C117.143 69.6483 116.823 69.6074 116.495 69.6074C114.288 69.6074 112.496 71.4429 112.496 73.7042C112.496 75.5858 113.737 77.1726 115.425 77.6526C115.88 77.8354 116.376 77.9364 116.894 77.9364C119.116 77.9364 120.921 76.0881 120.921 73.8111C120.921 71.7268 119.409 70.0016 117.448 69.7248ZM249.765 99.8026C247.805 99.8026 246.214 101.433 246.214 103.441C246.214 105.45 247.805 107.08 249.765 107.08C251.726 107.08 253.317 105.45 253.317 103.441C253.317 101.433 251.726 99.8026 249.765 99.8026Z" fill="#005320"/>
</g>
<defs>
<clipPath id="clip0_108_1010">
<rect width="71.25" height="73" fill="white" transform="translate(18.5 17.5)"/>
</clipPath>
</defs>
</svg>
